<?xml version="1.0" standalone="no"?><!DOCTYPE svg PUBLIC "-//W3C//DTD SVG 1.1//EN" "http://www.w3.org/Graphics/SVG/1.1/DTD/svg11.dtd"><svg t="1712816662224" class="icon" viewBox="0 0 1024 1024" version="1.1" xmlns="http://www.w3.org/2000/svg" p-id="184835" xmlns:xlink="http://www.w3.org/1999/xlink" width="200" height="200"><path d="M657.5616 629.6064v-0.768h-0.3072l0.3072 0.768zM642.7136 611.2256c1.024 1.792 1.7408 3.84 4.4544 5.2736-0.512-0.512-1.1776-0.9216-1.7408-1.4336-0.512-1.792-1.7408-2.816-2.7136-3.84z" fill="#ffb3a7" p-id="184836"></path><path d="M913.92 678.6048c-31.9488-14.336-76.8-49.7664-69.12-90.624 6.656-1.2288 6.0416-6.4 12.0832-6.4 8.448-26.2656-15.36-37.7856-17.5104-63.744 42.5984-18.5344-21.1456-48.128-1.1776-70.656-3.072-36.2496-45.2608-32.1536-55.1936-65.024 60.7232-7.7312 43.6224-59.392 60.1088-98.048-15.0016-19.3024 4.4032-37.2736-11.1104-56.832 2.7648-5.4784 2.1504-13.312 7.2704-17.1008-1.536-7.68-3.2768-15.8208-5.12-23.8592 9.984-30.3104 8.9088-68.7616 2.304-110.2336-16.5888-16.7936-58.0608-11.264-80.6912-1.8432-46.9504 19.0464-102.5024 81.2032-131.4816 120.9856-33.1776 45.824-53.504 97.792-70.144 145.2544a27.3408 27.3408 0 0 0-6.912 24.576c0 1.3824 0.3584 1.8944 0.6656 3.0208-1.792 8.0384-2.048 18.176-6.7584 21.504 2.56 2.7136 4.1984 6.656 6.7584 9.6256 11.8272 20.224 25.6 44.544 37.4784 72.704 13.824 31.232 23.552 60.5696 29.44 84.5824 13.9776 18.8416 25.088 35.328 28.672 42.8032 3.072 9.0624 8.2944 20.6336 15.0016 17.92 1.792 21.0944 22.3744 54.016 43.8272 61.1328 5.9904-0.7168 5.0688-5.8368 12.6464-6.3488 19.4048 8.6528 19.8656 44.9536 51.8656 34.0992 5.12-33.0752 31.8464-17.6128 55.0912-15.6672 7.5264-40.0384 54.4256-10.8032 77.8752 15.6672 21.8112 24.9856 42.24 55.2448 68.864 27.6992-1.792-44.6976-29.8496-43.5712-54.784-55.2448z m-263.5776-71.3216c0.512 1.1776 2.2528 2.5088 2.7648 3.328 0.6144 0.6144 1.1264 1.1776 1.9456 1.7408-2.9184-1.7408-4.1984-3.072-4.7104-5.0688z m15.3088 18.7392a4.096 4.096 0 0 0-0.3584-1.2288h0.3584v1.2288z" fill="#ffb3a7" p-id="184837"></path><path d="M577.4336 475.904a575.1808 575.1808 0 0 0-37.2736-72.448c-2.56-3.8912-4.4544-6.656-6.3488-10.496-5.4784-6.656-10.24-13.2608-14.336-18.5344a42.1376 42.1376 0 0 0 6.2976-43.3664c-1.8944-3.6864-4.096-6.5536-6.2976-9.6768-1.4336-40.8576 0.2048-167.1168 84.5312-192.256 1.6896 2.2016 4.9664 3.2768 8.8576 3.2768 7.1168 0 12.4416-4.9664 12.4416-10.752 0-6.0416-5.376-11.008-12.4416-11.008-6.0416 0-11.264 3.8912-12.1856 8.9088C514.7648 144.896 508.1088 261.4272 508.928 312.32a37.4272 37.4272 0 0 0-33.4848-3.8912c-8.7552-52.224-14.2848-142.2336 47.3088-177.3568a16.64 16.64 0 0 0 6.2464 1.3824c7.3216 0 13.1072-4.9664 13.1072-10.7008 0-6.0928-5.7856-11.008-13.1072-11.008-6.912 0-12.3904 4.9152-12.3904 11.008v0.6144c-68.4032 39.9872-60.7232 137.6256-50.7904 191.232A41.3696 41.3696 0 0 0 489.472 387.584c3.2768 25.9584 15.5136 67.4304 34.816 111.616 30.208 70.8608 67.3792 123.0336 82.3296 116.8896 2.0992-0.9216 4.096-4.1984 5.2224-8.1408 2.4576-9.0624 0.2048-26.3168-5.2224-47.616-5.4784-23.7568-15.872-53.6064-29.184-84.48z" fill="#ffb3a7" p-id="184838"></path><path d="M438.3744 880.9984c-8.7552 26.0608-28.8768 45.568 2.304 77.7216 38.2464-0.3072 30.4128-35.9424 27.3408-68.9664-2.9696-35.2768 8.192-89.3952 42.3936-67.1744 14.592-18.2272 21.76-48.1792 49.3056-29.1328 29.952-15.7184 3.8912-41.0624 11.0592-61.0816 5.632-5.12 8.704-0.9216 13.312-4.8128 9.6256-20.4288 0-58.0608-14.08-73.9328 6.6048-2.9184 1.8432-14.6432-2.56-23.1936-3.0208-7.68-7.2704-27.136-11.264-50.2784a513.9968 513.9968 0 0 1-40.96-79.5648c-12.288-28.1088-20.3264-54.784-26.9312-77.312-0.3584-3.8912-2.048-7.8848-2.2016-11.4688-5.6832 1.0752-13.2096-5.7344-20.2752-9.984-0.5632-1.024-0.7168-1.5872-1.6896-2.56a27.3408 27.3408 0 0 0-22.6304-11.9296c-45.824-20.736-97.4848-41.8304-153.4976-49.408-48.8448-6.4-132.1984-9.0112-178.3296 11.8272-22.4256 9.9328-55.04 36.1472-54.272 59.7504 25.4976 33.3824 52.5312 60.6208 81.408 74.3424 4.608 6.8608 9.216 13.7216 13.7216 20.1728 6.3488-1.0752 11.5712 4.7104 17.408 6.5024 3.4816 24.6784 29.9008 23.04 33.536 47.2576 39.3728 14.6944 65.024 62.6688 112.4352 24.064 16.896 29.7984-15.0528 57.5488 9.0624 84.736 30.0544 1.1264 7.5776 67.6864 50.3808 49.6128 17.3056 19.456 9.216 44.6464 34.048 56.6272 4.1984-4.4032 7.5776-0.4096 13.0048-4.4032 34.816 22.6816 29.696 79.616 17.92 112.64z m130.048-240.0768c1.1264 1.7408 1.2288 3.584 0.4608 6.912a10.5984 10.5984 0 0 0 0.1024-2.6624c-0.3072-0.9216 0-3.072-0.512-4.2496z m3.072 24.0128l-0.9216-0.8704 0.256-0.2048s0.3072 0.768 0.6656 1.024z" fill="#ffb3a7" p-id="184839"></path></svg>